# xmcd
#
# Track frame offsets: 
#        150
#        14914
#        31875
#        63691
#        86877
#        102607
#        124423
#        141867
#        172592
#
# Disc length: 2609 seconds
#
# Revision: 0
# Processed by: cddbd v1.5.1PL0 Copyright (c) Steve Scherf et al.
# Submitted via: ExactAudioCopy v0.95a5
#
DISCID=820a2f09
DTITLE=Silvia Josifoska - Blues
DYEAR=2005
DGENRE=Blues
TTITLE0=Rock Me Baby
TTITLE1=Cajun Moon
TTITLE2=Sky's Crying
TTITLE3=Mignight Train
TTITLE4=Before You Accuse Me
TTITLE5=Hoochie Coochie Man
TTITLE6=Mistreated Woman
TTITLE7=Old Love
TTITLE8=After Midnight
EXTD=
EXTT0=
EXTT1=
EXTT2=
EXTT3=
EXTT4=
EXTT5=
EXTT6=
EXTT7=
EXTT8=
PLAYORDER=
